<svg xmlns="http://www.w3.org/2000/svg" enable-background="new 0 0 512 512" viewBox="0 0 512 512" id="Accumulator">
  <linearGradient id="a" x1="50.576" x2="461.431" y1="496.556" y2="85.701" gradientUnits="userSpaceOnUse">
    <stop offset=".049" stop-color="#009cd9" class="stopColor00a683 svgShape"></stop>
    <stop offset="1" stop-color="#5dd1ff" class="stopColorfff05d svgShape"></stop>
  </linearGradient>
  <path fill="url(#a)" d="M469.405,173.959h-27.83v-24.897c0-12.957-10.543-23.5-23.5-23.5
		c-12.957,0-23.495,10.543-23.495,23.5v24.897H117.426v-24.897c0-12.957-10.541-23.5-23.498-23.5s-23.5,10.543-23.5,23.5v24.897
		H42.595c-12.313,0-22.332,10.06-22.332,22.431v24.523c0,12.313,10.019,22.332,22.332,22.332h3.725v235.757
		c0,17.728,14.424,32.154,32.154,32.154h355.071c17.728,0,32.154-14.426,32.154-32.154V243.245h3.707
		c12.313,0,22.332-10.019,22.332-22.332V196.39C491.738,184.019,481.719,173.959,469.405,173.959z M405.211,149.062
		c0-7.096,5.773-12.869,12.864-12.869c7.096,0,12.869,5.773,12.869,12.869v24.897h-25.733V149.062z M81.059,149.062
		c0-7.096,5.773-12.869,12.869-12.869c7.094,0,12.866,5.773,12.866,12.869v24.897H81.059V149.062z M455.067,479.002
		c0,11.867-9.656,21.523-21.523,21.523H78.474c-11.867,0-21.523-9.656-21.523-21.523V243.271h398.116V479.002z M481.106,220.913
		c0,6.562-5.139,11.701-11.701,11.701H42.595c-6.453,0-11.701-5.248-11.701-11.701V196.39c0-6.505,5.248-11.8,11.701-11.8
		c4.577,0,407.25,0.001,426.81,0c6.453,0,11.701,5.295,11.701,11.8V220.913z M216.118,88.803h26.872l-1.241,50.764
		c-0.134,5.38,6.96,7.53,9.824,2.943l48.823-78.304c2.203-3.534-0.343-8.129-4.511-8.129h-27.119V6.159
		c0-5.347-7.053-7.343-9.85-2.777L211.583,80.71C209.418,84.245,211.965,88.803,216.118,88.803z M258.135,25.024v36.369
		c0,2.938,2.38,5.316,5.316,5.316h22.857l-33.454,53.656l0.898-36.748c0.076-2.98-2.324-5.446-5.313-5.446h-22.833L258.135,25.024z
		 M389.7,72.923c0-2.938,2.383-5.316,5.316-5.316l17.743,0.002V49.864c0-2.938,2.378-5.316,5.316-5.316s5.316,2.378,5.316,5.316
		v17.747l17.749,0.002c2.938,0,5.316,2.383,5.316,5.316c0,2.938-2.383,5.316-5.316,5.316l-17.749-0.002v17.751
		c0,2.938-2.378,5.316-5.316,5.316s-5.316-2.378-5.316-5.316V78.241l-17.743-0.002C392.077,78.239,389.7,75.856,389.7,72.923z
		 M65.548,72.923c0-2.938,2.38-5.316,5.316-5.316l46.126,0.005c2.936,0,5.316,2.383,5.316,5.316c0,2.938-2.38,5.316-5.316,5.316
		l-46.126-0.005C67.928,78.239,65.548,75.856,65.548,72.923z M255.983,461.42c49.391,0,89.571-40.159,89.571-89.522
		s-40.18-89.527-89.571-89.527c-49.363,0-89.524,40.164-89.524,89.527S206.62,461.42,255.983,461.42z M255.983,293.003
		c43.525,0,78.94,35.393,78.94,78.895s-35.414,78.89-78.94,78.89c-43.502,0-78.893-35.388-78.893-78.89
		S212.481,293.003,255.983,293.003z M234.612,405.357c-1.53,6.076-1.949,13.154-0.239,21.277c0.608,2.885,3.442,4.709,6.297,4.106
		c2.873-0.602,4.711-3.426,4.106-6.297c-1.056-5.015-1.036-9.497-0.401-13.502c14.21,4.814,29.149-0.744,36.877-13.066
		c20.365-32.434-14.167-80.702-15.646-82.742c-3.581-4.923-11.33-0.878-9.321,4.88c0.057,0.166,5.225,17.546-19.501,38.913
		C219.018,374.283,222.305,394.797,234.612,405.357z M243.735,366.972c13.354-11.54,19.415-22.452,21.974-31.163
		c8.02,15.272,17.183,39.463,6.541,56.418c-5.23,8.324-15.275,11.848-24.615,8.621c4.279-8.433,10.78-12.913,11.289-13.252
		c2.45-1.604,3.146-4.89,1.547-7.346c-1.596-2.461-4.887-3.161-7.353-1.563c-0.585,0.381-8.568,5.707-14.234,15.865
		C233.144,386.98,232.872,376.358,243.735,366.972z"></path>
</svg>
