<svg xmlns="http://www.w3.org/2000/svg" viewBox="0 0 64 64" id="CarWebsite">
  <g fill="#009cd9" class="color000000 svgShape">
    <path d="M62 53h-1V18a3 3 0 0 0-3-3H45v-1h1a3 3 0 0 0 0-6h-1a7 7 0 0 0-7-7H26a7 7 0 0 0-7 7h-1a3 3 0 0 0 0 6h1v1H6a3 3 0 0 0-3 3v35H2a1 1 0 0 0-1 1v4a5 5 0 0 0 5 5h52a5 5 0 0 0 5-5v-4a1 1 0 0 0-1-1ZM49 21h6v28H9V21h6v2h-1a1 1 0 0 0-1 1v4a1 1 0 0 0 1 1h3v1a3 3 0 0 0 3 3h4a3 3 0 0 0 3-3v-1h10v1a3 3 0 0 0 3 3h4a3 3 0 0 0 3-3v-1h3a1 1 0 0 0 1-1v-4a1 1 0 0 0-1-1h-1Zm0 4v2H15v-2Zm-27.82-2a3 3 0 0 1 5.64 0Zm16 0a3 3 0 0 1 5.64 0ZM39 29h6v1a1 1 0 0 1-1 1h-4a1 1 0 0 1-1-1Zm-20 0h6v1a1 1 0 0 1-1 1h-4a1 1 0 0 1-1-1Zm28-6h-2.1a5 5 0 0 0-9.8 0h-6.2a5 5 0 0 0-9.8 0H17v-2a4 4 0 0 1 4-4h22a4 4 0 0 1 4 4Zm-1-13a1 1 0 0 1 0 2h-1v-2ZM21 8a5 5 0 0 1 5-5h12a5 5 0 0 1 5 5v7H21Zm-3 4a1 1 0 0 1 0-2h1v2ZM5 18a1 1 0 0 1 1-1h10.54a5.87 5.87 0 0 0-1.19 2H8a1 1 0 0 0-1 1v30a1 1 0 0 0 1 1h48a1 1 0 0 0 1-1V20a1 1 0 0 0-1-1h-7.35a5.87 5.87 0 0 0-1.19-2H58a1 1 0 0 1 1 1v35H5Zm19 37h16v1a1 1 0 0 1-1 1H25a1 1 0 0 1-1-1Zm37 3a3 3 0 0 1-3 3H6a3 3 0 0 1-3-3v-3h19v1a3 3 0 0 0 3 3h14a3 3 0 0 0 3-3v-1h19Z" fill="#009cd9" class="color000000 svgShape"></path>
    <path d="M38 5H26a3 3 0 0 0-3 3v4a1 1 0 0 0 1 1h16a1 1 0 0 0 1-1V8a3 3 0 0 0-3-3zm1 6H25V8a1 1 0 0 1 1-1h12a1 1 0 0 1 1 1zM12 43h20a1 1 0 0 0 1-1v-6a1 1 0 0 0-1-1H12a1 1 0 0 0-1 1v6a1 1 0 0 0 1 1zm1-6h18v4H13zM11 45h42v2H11zM35 37h18v2H35zM35 41h18v2H35z" fill="#009cd9" class="color000000 svgShape"></path>
  </g>
</svg>
