<svg xmlns="http://www.w3.org/2000/svg" viewBox="0 0 25 25" id="handgear">
  <g fill="#009cd9" class="color000000 svgShape">
    <path d="M22.71 16.35c-.32-.78-1.16-1-2.52-.79a17 17 0 00-3.48 1.23 2.2 2.2 0 00-.9-.17 10.19 10.19 0 00-1.4.16 4.47 4.47 0 01-1.61.1 7.31 7.31 0 01-1.19-.69 6.65 6.65 0 00-3.15-1.34 8.91 8.91 0 00-1.67.05c-.53.07-1.06.17-1.56.28a2 2 0 00-1.78-1.07 2 2 0 00-2 1.94v4.84a2 2 0 002 1.94 2 2 0 002-1.94v0a39.91 39.91 0 006.91 1.72h0a3.29 3.29 0 00.45 0c3 0 8.08-2.92 9.52-4.83A1.47 1.47 0 0022.71 16.35zM4.45 20.89a1 1 0 01-1 .94 1 1 0 01-1-.94V16.05a1 1 0 011-.94 1 1 0 011 .78.34.34 0 010 .16zM21 17.72c-1.81 1.74-6.21 4.12-8.56 3.86a40.45 40.45 0 01-7-1.79V16.14c.47-.1 1-.18 1.46-.25a8.51 8.51 0 011.46-.05A5.76 5.76 0 0111.05 17a7.31 7.31 0 001.4.79 4.5 4.5 0 002.12 0 8.84 8.84 0 011.24-.15 1 1 0 01.51.1.3.3 0 01.07.17c0 .21-.15.47-.5.71a5.67 5.67 0 01-5.49 0 .5.5 0 10-.48.88 7.15 7.15 0 003.37.84 5.7 5.7 0 003.18-.87 1.79 1.79 0 00.91-1.68s0-.08 0-.12a14.39 14.39 0 013-1.07c.37-.08 1.25-.2 1.4.15C21.78 16.71 21.77 17 21 17.72zM7.6 10h.55a5.15 5.15 0 00.38.91l-.39.39a1 1 0 00-.27.65.91.91 0 00.27.65l.61.61a.88.88 0 00.65.27h0a.88.88 0 00.65-.27l.39-.39a4.35 4.35 0 00.92.38v.55a.92.92 0 00.92.92h.86a.92.92 0 00.92-.92v-.55a4.27 4.27 0 00.91-.38l.39.39a.93.93 0 001.31 0l.6-.61a.92.92 0 000-1.3l-.39-.39a4.5 4.5 0 00.38-.91h.55a.93.93 0 00.92-.93V8.25a.92.92 0 00-.92-.92h-.55a4.35 4.35 0 00-.38-.92L17.27 6a.92.92 0 000-1.3l-.6-.61a.93.93 0 00-1.31 0L15 4.5a4.27 4.27 0 00-.91-.38V3.57a.92.92 0 00-.92-.92h-.86a.92.92 0 00-.92.92v.55a4.35 4.35 0 00-.92.38l-.39-.39a.88.88 0 00-.65-.27h0a.88.88 0 00-.65.27l-.61.61a.92.92 0 000 1.3l.39.39a5 5 0 00-.38.92H7.6a.92.92 0 00-.92.92V9.1A.93.93 0 007.6 10zm.08-1.7h.86A.5.5 0 009 7.92a3.69 3.69 0 01.55-1.31A.51.51 0 009.52 6L8.9 5.37l.5-.5.61.61a.5.5 0 00.63.07A3.67 3.67 0 0112 5a.5.5 0 00.4-.49V3.65h.7v.86a.5.5 0 00.4.49 3.69 3.69 0 011.31.55.5.5 0 00.63-.07L16 4.87l.49.5L15.9 6a.49.49 0 00-.06.63 3.67 3.67 0 01.54 1.31.51.51 0 00.49.41h.86V9h-.86a.5.5 0 00-.49.4 3.67 3.67 0 01-.54 1.31.49.49 0 00.06.63l.61.61-.49.5-.62-.61a.5.5 0 00-.63-.07 3.52 3.52 0 01-1.31.55.5.5 0 00-.4.49v.86h-.7v-.86a.5.5 0 00-.4-.49 3.57 3.57 0 01-1.32-.55.5.5 0 00-.63.07l-.61.61L8.9 12l.62-.61a.51.51 0 00.06-.63A3.69 3.69 0 019 9.43.49.49 0 008.54 9H7.68z" fill="#009cd9" class="color000000 svgShape"></path>
    <path d="M12.71,11.3a2.62,2.62,0,0,0,2.62-2.62,2.56,2.56,0,0,0-.18-1l0-.1a2.67,2.67,0,0,0-1.36-1.35l-.09,0a2.65,2.65,0,0,0-1.92,0l-.1,0A2.69,2.69,0,0,0,10.3,7.62l0,.1a2.56,2.56,0,0,0-.18,1,2.61,2.61,0,0,0,2.63,2.62ZM11.17,8.12a.36.36,0,0,0,0-.09,1.7,1.7,0,0,1,.9-.87,1.73,1.73,0,0,1,.6-.11,1.81,1.81,0,0,1,.55.09l.09,0a1.7,1.7,0,0,1,.87.9,1.52,1.52,0,0,1,.11.6,1.63,1.63,0,0,1-3.14.59,1.71,1.71,0,0,1-.11-.59A1.82,1.82,0,0,1,11.17,8.12Z" fill="#009cd9" class="color000000 svgShape"></path>
  </g>
</svg>
