<svg xmlns="http://www.w3.org/2000/svg" xmlns:xlink="http://www.w3.org/1999/xlink" enable-background="new 0 0 2500 2500" viewBox="0 0 2500 2500" id="save-water">
  <defs>
    <rect id="a" width="2500" height="2500"></rect>
  </defs>
  <clipPath id="b">
    <use xlink:href="#a" overflow="visible"></use>
  </clipPath>
  <g clip-path="url(#b)">
    <path fill="#500009" d="M1289,166.7c-24.1-14-53.9-14-78,0c-14.9,8.6-364.2,213.7-364.2,536.4c0,215.4,180.9,390.6,403.2,390.6
			s403.2-175.2,403.2-390.6C1653.2,380.4,1303.9,175.3,1289,166.7z"></path>
    <path fill="#1d63a8" d="M1250,937.5c-136.2,0-247-105.1-247-234.4c0-179,168.6-319.6,247-375.3c78.4,55.7,247,196.3,247,375.3
			C1497,832.4,1386.2,937.5,1250,937.5z"></path>
    <path fill="#500009" d="M2335.2,836.7c0-76.3-75.5-133.8-175.5-133.8c-74.8,0-147,33.2-198.1,91.1c-60.5,68.6-91.2,167.1-91.2,292.7
			c0,107.2-70.2,188.2-133.8,239.5c-11-38.1-31.2-76.3-67.1-105.1c-67.1-53.6-163-55.4-285.1-5.1
			c-279.8,115.3-443.1,111.7-446.8,112H372.7c-125.4,0-216.4,98.6-216.4,234.4v546.9c0,45.9,13.8,83,40.9,110.1
			c46.5,46.4,111.4,46.5,181.6,46.2h549.3l262.3,63.8c59.7,9.8,119.6,14.6,178.9,14.6c435.4,0,841.7-254.6,935.1-611.7
			c0,0,0-0.1,0-0.1c46.3-178.1,41.5-368.4,35.3-609.4C2337.6,1034.5,2335.2,939.7,2335.2,836.7z"></path>
    <path fill="#1d63a8" d="M378.5,2109.4c-21.9,0-49.8,0.1-66-2.1v-544.8c0-23.5,5.9-78.1,60.2-78.1l486.7-0.1v625.1H390.6H378.5z"></path>
    <path fill="#f6851f" d="M2153.3,1692.8c-85.2,325.2-523.5,550.5-931.7,483.6l-206-50.3v-646.3c84.1-9.6,230.7-37.9,428.2-119.3
			c72.7-29.8,113.8-28.6,127.9-17.4c20.2,16,23.7,73.2,18.4,106.3c-0.5,2.9-0.1,5.8-0.3,8.7c-0.1,0.7-0.4,1.2-0.5,1.9
			c-0.2,3.3-6,80.7-122.5,132.7c-39.4,17.5-57.1,63.7-39.6,103.1c13,29.1,41.5,46.3,71.4,46.3c10.6,0,21.4-2.1,31.8-6.8
			c132.7-59.2,188.8-152.2,207.2-221.6c86.8-49,288.8-188.5,288.8-427c0-110.7,30.5-187.4,85.8-216c27-14,52.2-12.9,66.6-9.5
			c0.3,95,2.6,183.1,4.7,265.5C2189.5,1355.4,2194.1,1536,2153.3,1692.8z"></path>
    <path fill="#fbaa1a" d="M1353.4,2033.7c640.3,25.4,791.2-489,828.4-983.6c-1.4-60.2-2.7-122.3-2.9-188.9c-14.4-3.4-39.5-4.5-66.6,9.5
			c-55.4,28.5-85.8,105.2-85.8,216c0,238.5-202,378-288.8,427c-18.4,69.4-74.5,162.5-207.2,221.6c-10.3,4.7-21.1,6.8-31.8,6.8
			c-29.9,0-58.4-17.2-71.4-46.3c-17.5-39.4,0.2-85.6,39.6-103.1c116.5-52,122.3-129.4,122.5-132.7c0-0.7,0.4-1.2,0.5-1.9
			c0.2-2.9-0.2-5.8,0.3-8.7c5.3-33,1.8-90.3-18.4-106.3c-14.2-11.2-55.3-12.4-127.9,17.4c-197.4,81.3-344,109.6-428.2,119.3v410.6
			C1112.8,1976.2,1227.7,2028.7,1353.4,2033.7z"></path>
    <path fill="#2574b9" d="M859.4 1484.3l-486.7.1c-54.3 0-60.2 54.6-60.2 78.1v386.9c43.2 13.3 89.3 20.8 137.3 20.8 187.7 0 347.4-110.3 409.5-265V1484.3zM1250 327.9c-78.4 55.7-247 196.3-247 375.3 0 79.1 41.8 148.9 105.2 191.3 170.7-55.6 293.4-206.6 293.4-384.6 0-15.3-1.1-30.3-2.8-45.2C1347.7 402.6 1288.2 355 1250 327.9z"></path>
  </g>
</svg>
