<svg xmlns="http://www.w3.org/2000/svg" viewBox="0 0 512 512" id="screwdriver">
  <g>
    <path fill="#f6f6f6" d="m504 32-32 64h-32L288 248l-24-24L416 72V40l64-32 24 24z"></path>
    <path d="M288 256a8 8 0 0 1-5.66-2.34l-24-24a8 8 0 0 1 0-11.32L408 68.69V40a8 8 0 0 1 4.42-7.16l64-32a8 8 0 0 1 9.24 1.5l24 24a8 8 0 0 1 1.5 9.24l-32 64A8 8 0 0 1 472 104h-28.69L317.66 229.66a8 8 0 0 1-11.32-11.32l128-128A8 8 0 0 1 440 88h27.06l27.21-54.42-15.85-15.85L424 44.94V72a8 8 0 0 1-2.34 5.66L275.31 224l18.35 18.34A8 8 0 0 1 288 256Z"></path>
    <path fill="#cd4f5f" d="m324 284-20 20-32-8v50.75a32 32 0 0 1-9.37 22.62L152.85 479.15a84.85 84.85 0 0 1-120-120l109.78-109.78a32 32 0 0 1 22.62-9.37H216l-8-32 20-20Z"></path>
    <path fill="#b24654" d="M152.85 455.15a84.85 84.85 0 0 1-144-48 84.85 84.85 0 0 0 144 72l109.78-109.78a32 32 0 0 0 9.37-22.62v-24a32 32 0 0 1-9.37 22.62Z"></path>
    <path fill="#ead590" d="m128 264 9.37 9.37a32 32 0 0 1 0 45.26l-42.74 42.74a32 32 0 0 1-45.26 0L40 352Z"></path>
    <path d="M92.85 512A92.85 92.85 0 0 1 27.2 353.49l71.14-71.15a8 8 0 0 1 11.32 11.32L38.51 364.8A76.86 76.86 0 0 0 147.2 473.49L257 363.72a23.87 23.87 0 0 0 7-17V296a8 8 0 0 1 9.94-7.76l27.61 6.9L312.69 284 228 199.31l-11.14 11.14 6.9 27.61A8 8 0 0 1 216 248h-50.75a23.87 23.87 0 0 0-17 7l-14.62 14.63a8 8 0 0 1-11.32-11.32L137 243.72A39.73 39.73 0 0 1 165.25 232h40.5l-5.51-22.06a8 8 0 0 1 2.1-7.6l20-20a8 8 0 0 1 11.32 0l96 96a8 8 0 0 1 0 11.32l-20 20a8 8 0 0 1-7.6 2.1L280 306.25v40.5A39.73 39.73 0 0 1 268.28 375L158.51 484.8A92.25 92.25 0 0 1 92.85 512Z"></path>
    <path d="m43.72 367-9.38-9.37a8 8 0 0 1 11.32-11.32l9.34 9.41a24 24 0 0 0 33.94 0L131.72 313a24 24 0 0 0 0-33.94l-9.38-9.37a8 8 0 0 1 11.32-11.32l9.37 9.38a40 40 0 0 1 0 56.56L100.28 367a40 40 0 0 1-56.56 0Z"></path>
    <path fill="#ead590" d="m248 384-88 88-9.37-9.37a32 32 0 0 1 0-45.26l42.74-42.74a32 32 0 0 1 42.47-2.47c2.04 1.58 2.85 2.53 12.16 11.84Z"></path>
    <path fill="#f1cb66" d="m248 384-88 88c-9.46-9.46-10.28-10.13-12-12.36 3.62-3.1-2.87 3.24 87.85-87.48 2.03 1.58 2.84 2.53 12.15 11.84Z"></path>
    <path d="m154.34 477.66-9.34-9.38a40 40 0 0 1 0-56.56L187.72 369a40 40 0 0 1 56.56 0l9.38 9.37a8 8 0 0 1 0 11.32l-88 88a8 8 0 0 1-11.32-.03ZM199 380.28 156.28 423a24 24 0 0 0 0 33.94l3.72 3.72L236.69 384l-3.69-3.72a24 24 0 0 0-34 0Z"></path>
  </g>
</svg>
