<svg xmlns="http://www.w3.org/2000/svg" enable-background="new 0 0 512 512" viewBox="0 0 512 512" id="setting">
  <g fill="#000000" class="color000000 svgShape">
    <g fill="#000000" class="color000000 svgShape">
      <path fill="#009cd9" d="M298.968 152.715c-.087-7.348-4.402-12.279-11.612-13.353-4.705-.702-9.428-1.291-14.168-1.647-2.513-.19-3.795-1.126-4.671-3.552-2.392-6.629-5.269-13.094-7.6-19.74-.546-1.542-.277-3.96.615-5.303 2.539-3.838 5.633-7.314 8.449-10.979 4.965-6.473 4.757-12.911-.858-18.7-6.733-6.941-13.57-13.786-20.511-20.528-5.338-5.182-12.123-5.537-18.093-1.126-3.709 2.747-7.184 5.832-10.979 8.44-1.109.763-3.206.98-4.463.477-7.236-2.842-14.298-6.144-21.56-8.926-2.747-1.057-3.743-2.539-3.951-5.346-.321-4.454-.893-8.899-1.672-13.301-1.066-6.075-5.234-10.416-11.395-10.667-7.851-.303-8.795-.416-16.655-.278-7.859-.138-8.804-.026-16.655.278-6.161.251-10.329 4.592-11.395 10.667-.78 4.402-1.352 8.847-1.672 13.301-.208 2.808-1.205 4.29-3.951 5.346-7.261 2.782-14.324 6.084-21.559 8.926-1.257.503-3.354.286-4.463-.477-3.796-2.608-7.27-5.693-10.979-8.44-5.971-4.411-12.755-4.056-18.093 1.126C64.136 65.654 57.3 72.499 50.567 79.44c-5.615 5.789-5.823 12.227-.858 18.7 2.816 3.665 5.91 7.14 8.449 10.979.893 1.343 1.161 3.761.615 5.303-2.331 6.646-5.208 13.111-7.6 19.74-.875 2.426-2.158 3.362-4.671 3.552-4.74.355-9.463.945-14.168 1.647-7.209 1.074-11.525 6.005-11.612 13.353-.113 9.68-.104 19.35-.009 29.021.069 7.704 4.671 12.66 12.383 13.57 5.009.598 10.069.953 15.017 1.881 1.56.286 3.44 1.802 4.142 3.25 2.738 5.71 4.905 11.689 7.626 17.409 1.178 2.487.953 4.168-.806 6.17-3.328 3.795-6.568 7.677-9.601 11.707-4.766 6.326-4.385 12.704 1.109 18.362 6.525 6.742 13.154 13.388 19.861 19.948 5.702 5.572 12.886 5.893 19.203 1.014 3.995-3.085 7.807-6.43 11.95-9.307 1.196-.832 3.466-1.005 4.861-.476 6.456 2.469 12.842 5.173 19.107 8.093 1.343.624 2.747 2.418 2.998 3.865.945 5.399 1.282 10.892 2.097 16.317 1.057 6.984 6.057 11.43 13.033 11.516 7.695.095 8.457.113 16.152.052 7.695.061 8.458.043 16.152-.052 6.976-.087 11.976-4.532 13.033-11.516.814-5.425 1.153-10.918 2.097-16.317.251-1.447 1.655-3.241 2.998-3.865 6.265-2.92 12.652-5.624 19.107-8.093 1.395-.529 3.665-.355 4.861.476 4.142 2.877 7.955 6.222 11.95 9.307 6.317 4.879 13.501 4.558 19.202-1.014 6.707-6.56 13.336-13.206 19.861-19.948 5.494-5.658 5.875-12.036 1.109-18.362-3.033-4.029-6.274-7.911-9.601-11.707-1.759-2.002-1.984-3.683-.806-6.17 2.721-5.719 4.887-11.698 7.626-17.409.702-1.447 2.582-2.964 4.142-3.25 4.948-.927 10.009-1.282 15.017-1.881 7.712-.91 12.313-5.866 12.383-13.57C299.072 172.064 299.081 162.394 298.968 152.715zM159.846 228.476c-34.159 0-61.845-27.686-61.845-61.845 0-34.15 27.686-61.845 61.845-61.845 34.159 0 61.845 27.695 61.845 61.845C221.69 200.79 194.005 228.476 159.846 228.476zM484.389 228.038c-1.663-5.173-5.786-7.715-11.114-6.903-3.477.53-6.943 1.143-10.369 1.925-1.817.413-2.927.031-4.074-1.492-3.135-4.162-6.576-8.102-9.672-12.29-.722-.971-1.059-2.737-.721-3.881.957-3.265 2.386-6.395 3.576-9.598 2.097-5.655.547-10.159-4.682-13.024-6.27-3.436-12.592-6.782-18.966-10.033-4.901-2.498-9.772-1.269-13.029 3.148-2.022 2.749-3.804 5.686-5.918 8.356-.617.781-2.052 1.391-3.049 1.31-5.732-.431-11.441-1.224-17.178-1.607-2.171-.148-3.198-.978-3.957-2.916-1.197-3.077-2.57-6.093-4.08-9.033-2.077-4.059-5.968-6.218-10.376-5.053-5.613 1.497-6.305 1.623-11.828 3.434-5.583 1.615-6.226 1.901-11.706 3.826-4.298 1.52-6.297 5.496-5.726 10.02.408 3.28.973 6.545 1.717 9.762.465 2.029.084 3.293-1.627 4.639-4.524 3.548-8.794 7.42-13.287 11.005-.778.629-2.307.933-3.257.636-3.25-1.015-6.377-2.437-9.596-3.57-5.18-1.815-9.896-.085-12.538 4.739-3.435 6.276-6.773 12.602-10.018 18.974-2.706 5.314-1.449 9.908 3.469 13.398 2.789 1.976 5.732 3.757 8.362 5.915.923.755 1.64 2.404 1.59 3.613-.198 5.204-.822 10.398-1.067 15.603-.09 1.905-.792 2.846-2.526 3.528-3.272 1.284-6.48 2.73-9.651 4.251-4.86 2.33-6.834 6.754-5.294 11.965 2.03 6.863 4.144 13.693 6.319 20.505 1.728 5.427 6.059 7.926 11.706 6.888 3.669-.669 7.322-1.521 11.02-1.944 1.164-.138 2.823.523 3.635 1.393 3.179 3.438 6.013 7.189 9.182 10.637 1.375 1.5 1.582 2.737.775 4.535-1.524 3.407-2.968 6.856-4.232 10.363-1.989 5.508-.329 9.931 4.786 12.731 6.079 3.341 12.212 6.592 18.38 9.764 5.243 2.694 10.388 1.355 13.788-3.469 2.15-3.05 4.115-6.244 6.414-9.18.664-.848 2.23-1.466 3.331-1.396 5.099.337 10.201.856 15.264 1.553 1.085.148 2.468 1.109 2.961 2.077 1.844 3.608 3.28 7.416 5.038 11.071 2.269 4.704 6.771 6.755 11.718 5.296 5.457-1.61 6-1.764 11.423-3.484 5.45-1.634 5.985-1.813 11.401-3.557 4.91-1.582 7.473-5.812 6.698-10.977-.607-4.01-1.565-7.965-2.075-11.985-.138-1.077.463-2.651 1.276-3.384 3.79-3.429 7.713-6.731 11.736-9.883.871-.678 2.512-1.05 3.539-.723 3.553 1.13 6.976 2.662 10.471 3.971 5.526 2.07 10.532.277 13.346-4.902 3.309-6.096 6.544-12.237 9.685-18.422 2.648-5.195 1.528-9.784-3.218-13.214-3.021-2.186-6.157-4.222-9.335-6.178-1.679-1.031-2.205-2.169-1.914-4.183.676-4.634.903-9.33 1.594-13.961.18-1.176 1.178-2.657 2.218-3.199 3.294-1.734 6.792-3.088 10.2-4.602 5.251-2.324 7.421-6.828 5.791-12.286C488.68 241.686 486.578 234.852 484.389 228.038zM402.606 311.886c-24.134 7.445-49.729-6.08-57.174-30.213-7.443-24.127 6.082-49.728 30.216-57.173 24.134-7.445 49.731 6.086 57.174 30.213C440.268 278.846 426.741 304.441 402.606 311.886z" class="color429dda svgShape"></path>
      <path fill="#ffffff" d="M318.272,382.957c-0.038-4.893-2.898-8.188-7.697-8.922c-3.131-0.48-6.275-0.885-9.43-1.134
			c-1.673-0.133-2.524-0.76-3.101-2.378c-1.575-4.421-3.473-8.733-5.008-13.164c-0.359-1.028-0.174-2.637,0.424-3.53
			c1.701-2.549,3.77-4.855,5.655-7.288c3.324-4.297,3.202-8.584-0.521-12.454c-4.465-4.639-8.999-9.216-13.603-13.724
			c-3.541-3.465-8.058-3.719-12.045-0.798c-2.477,1.819-4.799,3.864-7.333,5.59c-0.741,0.505-2.138,0.644-2.973,0.306
			c-4.811-1.912-9.505-4.129-14.333-6.001c-1.826-0.711-2.486-1.7-2.617-3.57c-0.202-2.966-0.571-5.928-1.078-8.861
			c-0.694-4.048-3.458-6.95-7.559-7.133c-5.227-0.223-5.856-0.3-11.09-0.229c-5.233-0.113-5.862-0.041-11.091,0.14
			c-4.103,0.151-6.891,3.03-7.616,7.072c-0.531,2.929-0.924,5.887-1.149,8.852c-0.146,1.869-0.814,2.853-2.646,3.549
			c-4.843,1.833-9.555,4.013-14.38,5.886c-0.838,0.331-2.234,0.182-2.971-0.329c-2.52-1.747-4.826-3.81-7.288-5.649
			c-3.964-2.953-8.483-2.734-12.051,0.702c-4.64,4.471-9.211,9.011-13.713,13.614c-3.755,3.839-3.91,8.126-0.621,12.449
			c1.866,2.448,3.916,4.77,5.597,7.333c0.591,0.897,0.763,2.507,0.396,3.533c-1.57,4.419-3.503,8.716-5.113,13.124
			c-0.589,1.613-1.446,2.233-3.12,2.353c-3.157,0.224-6.304,0.604-9.439,1.059c-4.804,0.696-7.69,3.968-7.768,8.86
			c-0.101,6.445-0.121,12.884-0.083,19.323c0.026,5.13,3.076,8.442,8.209,9.068c3.334,0.412,6.703,0.662,9.995,1.292
			c1.038,0.194,2.286,1.209,2.75,2.175c1.808,3.81,3.235,7.797,5.031,11.612c0.778,1.659,0.624,2.778-0.553,4.106
			c-2.226,2.518-4.394,5.095-6.425,7.769c-3.191,4.199-2.954,8.447,0.69,12.229c4.327,4.507,8.724,8.95,13.172,13.335
			c3.782,3.725,8.565,3.958,12.784,0.727c2.668-2.043,5.216-4.261,7.982-6.165c0.798-0.551,2.311-0.66,3.238-0.304
			c4.292,1.661,8.538,3.479,12.702,5.44c0.893,0.419,1.823,1.617,1.986,2.581c0.615,3.597,0.825,7.256,1.353,10.87
			c0.685,4.653,4.003,7.627,8.648,7.703c5.124,0.084,5.632,0.097,10.756,0.078c5.124,0.061,5.632,0.051,10.756,0.008
			c4.645-0.039,7.987-2.986,8.709-7.633c0.557-3.61,0.797-7.267,1.44-10.859c0.171-0.963,1.111-2.154,2.007-2.565
			c4.18-1.928,8.44-3.711,12.745-5.338c0.93-0.348,2.442-0.227,3.236,0.33c2.75,1.927,5.28,4.164,7.932,6.229
			c4.193,3.265,8.978,3.071,12.79-0.624c4.484-4.35,8.916-8.758,13.279-13.229c3.673-3.753,3.944-7.999,0.788-12.223
			c-2.009-2.691-4.157-5.285-6.362-7.821c-1.166-1.338-1.312-2.458-0.52-4.11c1.827-3.801,3.286-7.776,5.124-11.571
			c0.471-0.962,1.727-1.967,2.767-2.153c3.297-0.604,6.668-0.827,10.005-1.212c5.138-0.585,8.215-3.873,8.282-9.002
			C318.29,395.841,318.321,389.402,318.272,382.957z M225.428,433.032c-22.746-0.091-41.109-18.6-41.018-41.345
			c0.091-22.739,18.601-41.106,41.347-41.015c22.747,0.091,41.109,18.605,41.018,41.345
			C266.685,414.762,248.175,433.123,225.428,433.032z" class="colorffffff svgShape"></path>
      <path fill="#406d7e" d="M144.512,309.963c7.883,0.098,19.806,0.135,31.547-0.01c9.4-0.118,16.394-6.271,17.819-15.689
			c0.786-5.22,1.202-11.109,2.025-15.989c0.067-0.16,0.303-0.46,0.294-0.479c1.252-0.583,17.969-8.174,19.294-7.902
			c3.881,2.716,7.682,6.038,11.558,9.028c8.339,6.437,18.156,5.914,25.627-1.391c6.876-6.724,13.589-13.464,19.951-20.035
			c14.606-15.046-1.426-27.096-8.594-37.052c0.108-0.329,7.541-17.929,8.451-18.44c4.702-0.887,9.485-1.212,14.687-1.835
			c10.217-1.203,16.619-8.253,16.71-18.389c0.102-10.366,0.101-19.892-0.008-29.125c-0.115-9.756-6.166-16.707-15.791-18.143
			c-5.508-0.823-10.123-1.36-14.519-1.688c-0.129-0.01-0.233-0.019-0.314-0.032c-0.065-0.148-6.936-17.807-7.686-19.943
			c-0.218-0.966,0.085-1.473,5.323-7.966c1.007-1.245,2.014-2.492,2.989-3.763c6.488-8.454,6.04-17.6-1.229-25.094
			c-6.761-6.973-13.697-13.914-20.616-20.635c-14.42-14-27.642,1.506-35.065,6.657c-0.089,0.019-0.177,0.041-0.115,0.08h-0.002
			c-4.38-1.722-21.829-9.226-22.26-9.226c-1.291-4.077,1.387-28.549-17.894-29.342c-39.848-0.625-49.013-5.292-51.456,28.505
			c-0.037,0.498-0.099,0.744-0.086,0.779c-0.327,0.222-21.753,9.092-22.08,9.223c-0.077-0.003-0.23-0.003-0.341-0.022
			c-7.587-5.261-20.695-20.6-35.065-6.654c-6.916,6.721-13.852,13.662-20.613,20.635c-7.268,7.493-7.717,16.64-1.227,25.097
			c11.483,14.946,10.08,5.48,0.742,31.371c-0.045,0.124-0.085,0.22-0.118,0.297c-8.853,1.416-30.382-0.765-30.624,19.863
			c-0.109,9.233-0.11,18.759-0.008,29.121c0.215,24.008,29.57,17.307,32.024,20.776c0.773,1.613,7.818,17.873,7.824,17.891
			c-6.764,9.77-23.463,21.736-8.599,37.046c6.367,6.577,13.08,13.318,19.957,20.042c7.463,7.302,17.283,7.832,25.624,1.391
			c3.832-2.954,7.682-6.314,11.561-9.028c0.184-0.038,0.46-0.054,0.506-0.054c21.673,8.279,18.916,8.606,19.025,8.224
			c0.503,2.869,0.823,5.764,1.163,8.827c0.273,2.461,0.547,4.924,0.918,7.378C128.318,310.823,144.185,309.845,144.512,309.963z
			 M127.637,268.913c-6.368-2.968-12.906-5.738-19.439-8.234c-7.742-2.944-13.224,4.077-21.548,10.484
			c-4.43,3.431-8.85,3.201-12.778-0.638c-21.526-21.057-26.437-23.949-20.482-31.856c14.533-19.301,15.03-12.72,7.267-31.285
			c-2.9-6.93-4.863-13.779-11.637-15.015c-25.873-4.85-23.918,5.294-23.394-39.595c0.189-16.277,25.043-2.779,30.16-16.946
			c10.106-28.018,12.758-21.208-2.188-40.671c-3.542-4.618-3.396-8.298,0.488-12.303c6.694-6.9,13.56-13.774,20.406-20.425
			c7.623-7.389,13.133,1.141,22.881,7.838c2.457,1.688,6.263,2.103,9.035,1.002c34.398-13.535,26.359-9.529,30.218-31.291
			c0.337-1.918,1.671-6.408,6.756-6.616c0.329-0.006,24.689-0.002,32.919,0c12.796,0.521,2.287,23.922,15.467,28.997
			c26.844,10.266,23.342,13.935,37.24,2.824c12.316-9.858,11.4-8.303,36.599,17.671c5.858,6.041,2.263,10.161-2.349,15.874
			c-4.47,5.536-9.336,10.609-6.964,17.316c1.267,3.616,2.695,7.187,4.075,10.64c1.214,3.035,2.43,6.07,3.539,9.146
			c2.893,8.01,7.731,6.145,22.726,8.381c4.873,0.728,7.375,3.609,7.433,8.562c0.524,44.923,2.453,34.739-23.369,39.592
			c-6.792,1.237-8.735,8.022-11.663,15.019c-3.654,8.74-7.628,13.579-2.105,19.863c17.154,19.56,16.643,16.134-11.109,43.275
			c-12.197,11.935-20.654-15.016-34.336-9.839c-29.662,11.331-23.866,9.213-27.301,32.121c-1.253,8.276-8.798,7.252-9.127,7.359
			c-7.626,0.089-21.895,0.103-30.422,0c-0.34-0.111-7.881,0.87-9.126-7.353c-0.349-2.327-0.608-4.663-0.866-6.999
			c-0.341-3.08-0.696-6.261-1.249-9.427C132.87,273.358,130.446,270.215,127.637,268.913z" class="color40437e svgShape"></path>
      <path fill="#406d7e" d="M226.593 166.632c0-36.806-29.943-66.748-66.748-66.748s-66.746 29.942-66.746 66.748c0 36.803 29.942 66.745 66.746 66.745S226.593 203.435 226.593 166.632zM102.903 166.632c0-31.4 25.544-56.944 56.942-56.944s56.944 25.544 56.944 56.944c0 31.397-25.545 56.941-56.944 56.941S102.903 198.029 102.903 166.632zM374.203 219.816c-26.734 8.247-41.704 36.56-33.455 63.301 8.241 26.712 36.654 41.668 63.303 33.455 0 0 0 0 .002 0 12.923-3.989 23.52-12.769 29.839-24.724 6.317-11.955 7.602-25.656 3.616-38.581C429.259 226.534 400.95 211.575 374.203 219.816zM425.224 287.27c-5.095 9.638-13.642 16.72-24.063 19.933h.002c-21.513 6.629-44.411-5.47-51.046-26.977-10.782-34.948 26.339-64.911 58.088-48.123 9.641 5.093 16.721 13.637 19.935 24.057C431.353 266.58 430.318 277.628 425.224 287.27z" class="color40437e svgShape"></path>
      <path fill="#406d7e" d="M489.056,226.538c-4.069-12.658-14.432-11.078-26.669-8.393c-3.026-3.977-6.664-8.171-9.148-11.687
			c1.932-6.347,10.829-20.102-3.549-27.982c-6.311-3.459-12.737-6.858-19.096-10.098c-14.141-7.216-21.043,7.619-24.558,12.233
			c-5.49-0.437-9.99-1.078-16.308-1.554c-8.232-21.013-14.049-19.331-32.139-13.381c-20.368,5.881-23.853,8.884-19.171,29.227
			c-4.439,3.493-8.351,7.032-12.601,10.458c-5.628-1.868-19.583-10.157-27.186,3.728c-3.418,6.242-6.81,12.67-10.086,19.1
			c-7.44,14.62,7.647,20.928,12.885,25.161c-0.188,4.666-0.74,9.49-1.034,14.776c-24.098,9.623-19.82,14.768-10.95,42.551
			c4.865,15.295,19.356,9.379,27.607,8.368c2.781,3.03,5.383,6.433,8.698,10.123c-10.929,24.566-4.99,25.19,21.376,38.75
			c7.363,3.788,15.226,1.816,20.035-5.004c2.051-2.909,3.87-5.841,5.877-8.479c4.677,0.322,9.367,0.798,13.964,1.423
			c3.945,7.904,6.089,19.005,17.849,19.005c2.788,0,4.742-0.779,5.283-0.906c5.865-1.734,15.922-4.841,21.363-6.593
			c0.327-0.25,12.738-3.358,10.752-16.605c-0.278-1.825-0.622-3.641-0.97-5.457c-0.372-1.953-0.748-3.906-1.018-5.875
			c3.474-3.128,7.082-6.166,10.737-9.038c3.085,1.026,6.45,2.5,9.63,3.689c7.809,2.936,15.421,0.124,19.375-7.152
			c13.958-25.71,18.72-29.823-4.176-44.07c0.621-4.456,0.923-9.622,1.535-13.273c7.198-3.712,22.667-7,18.05-22.439
			C493.232,239.798,491.152,233.061,489.056,226.538z M467.663,267.901c-0.364,2.438-0.606,4.896-0.846,7.353
			c-0.72,7.335-2.506,12.036,3.443,15.689c10.479,6.452,13.285,8.029,10.752,13.002c-14.362,28.268-9.795,22.575-27.649,16.898
			c-5.772-1.846-10.518,3.033-20.04,11.636c-2.022,1.825-3.196,4.969-2.856,7.64c2.446,19.285,8.849,14.989-23.97,24.689
			c-9.22,2.706-6.643-17.108-17.659-18.599c-21.397-2.943-20.489-2.566-27.489,7.835c-2.853,4.249-4.767,7.704-9.737,5.154
			c-20.513-10.551-22.81-10.891-20.795-16.474c3.618-10.04,7.782-14.062,2.453-19.879c-12.128-13.181-9.039-15.372-25.116-12.207
			c-4.579,0.902-7.826,1.899-9.365-2.939c-6.783-21.248-8.748-24.076-3.576-26.559c9.402-4.507,14.612-4.676,14.956-11.968
			c0.902-19.407,4.166-19.163-8.205-27.484c-4.28-2.878-7.054-4.384-4.68-9.051c14.362-28.199,10.033-22.766,26.324-17.69
			c5.279,1.653,8.566-2.046,14.098-6.734c7.025-5.952,11.965-8.093,10.31-15.331c-3.355-14.483-2.97-13.36,12.467-17.843
			c15.369-5.043,14.858-5.934,20.19,7.781c1.479,3.779,4.16,5.748,8.195,6.022c21.091,1.397,20.193,4.899,28.075-6.683
			c5.818-8.588,4.443-8.013,28.036,4.915c8.941,4.902-6.574,15.959,0.239,25.119c1.674,2.263,3.445,4.458,5.218,6.651
			c1.514,1.873,3.03,3.75,4.481,5.674c2.299,3.054,5.35,4.178,9.081,3.319c2.979-0.68,6.161-1.27,10.015-1.854
			c2.962-0.476,4.784,0.673,5.709,3.555c2.074,6.453,4.134,13.126,6.301,20.406C488.92,259.642,469.427,256.392,467.663,267.901z" class="color40437e svgShape"></path>
      <path fill="#406d7e" d="M311.316,369.189c-3.324-0.511-6.169-0.862-8.941-1.107c-1.539-4.209-3.193-8.021-4.567-11.929
			c3.76-5.436,14.781-14.592,4.32-25.464c-4.505-4.682-9.116-9.335-13.707-13.828c-10.395-10.179-20.452,0.575-24.807,3.708
			c-4.261-1.726-8.32-3.62-13.069-5.502c-1.383-18.777-3.878-21.328-33.878-20.227l-1.975,0.07
			c-11.115,0.407-12.613,10.336-13.444,19.968c-4.486,1.721-8.943,3.744-13.104,5.39c-4.281-3.128-14.275-14.017-24.776-3.909
			c-4.608,4.439-9.257,9.054-13.815,13.717c-10.545,10.781,0.721,20.515,4.114,25.499c-1.391,3.854-3.109,7.757-4.666,11.897
			c-23.659,1.862-21.148,8.495-20.996,34.09c0.038,7.528,4.951,12.989,12.51,13.908c1.018,0.128,2.041,0.239,3.062,0.348
			c2.106,0.23,4.107,0.447,6.06,0.795c1.474,3.171,2.858,6.88,4.516,10.516c-7.61,8.67-14.152,16.645-5.085,26.058
			c4.168,4.34,8.629,8.859,13.267,13.429c5.496,5.416,13.038,5.853,19.204,1.13c0.985-0.756,1.955-1.532,2.923-2.307
			c1.431-1.149,2.794-2.244,4.181-3.236c3.759,1.471,7.489,3.067,11.112,4.758c1.045,6.734,0.185,21.681,14.631,21.918
			c5.079,0.083,5.172,0.098,10.78,0.08c4.692,0.053,5.556,0.053,10.174,0.013c0.327-0.12,12.272,0.578,14.194-11.795
			c0.255-1.65,0.447-3.309,0.637-4.969c0.195-1.685,0.386-3.37,0.659-5.042c3.649-1.666,7.396-3.236,11.147-4.669
			c4.718,3.438,15.184,15.395,26.275,4.624c19.027-18.453,24.469-20.881,8.497-39.426c1.595-3.405,3.089-7.291,4.6-10.474
			c6.976-1.183,21.557,0.101,21.754-14.872c0.149-10.776,0.075-17.193,0.072-19.429
			C323.117,375.674,318.464,370.287,311.316,369.189z M299.056,407.671c-6.401,1.139-7.189,7.554-11.455,16.432
			c-3.22,6.721,1.573,9.197,7.377,16.981c2.897,3.874,1.515,4.387-13.552,18.998c-3.378,3.28-5.761,0.8-9.078-1.905
			c-9.07-7.381-8.693-7.725-26.26,0.377c-5.768,2.648-4.892,8.375-6.242,17.122c-0.642,4.139-4.237,3.391-4.591,3.491
			c-4.79,0.045-14.467,0.012-20.133-0.083c-0.327-0.098-3.849,0.56-4.449-3.517c-1.245-8.52-0.368-14.499-6.1-17.176
			c-4.227-1.991-8.607-3.871-13.029-5.582c-2.475-0.954-5.673-0.606-7.784,0.839c-2.971,2.048-5.47,4.232-8.181,6.313
			c-4.263,3.26-5.507,0.944-19.445-13.573c-1.969-2.042-2.052-3.578-0.318-5.863c9.362-12.312,10.813-8.694,5.13-22.432
			c-2.146-5.195-3.622-10.016-8.912-11.007c-16.443-3.163-14.601,3.956-14.143-24.794c0.138-8.925,16.172-0.119,20.028-10.669
			c1.61-4.399,3.506-8.599,5.122-13.145c3.506-9.74-12.273-15.626-6.48-21.548c15.263-15.605,15.678-16.538,19.327-13.812
			c5.39,4.014,9.229,8.888,14.964,6.619c15.931-6.174,19.633-7.103,20.141-13.637c0.585-7.694,0.972-11.277,4.048-11.393
			c7.637-0.283,14.173-0.255,21.791,0.083c2.96,0.134,3.399,3.122,3.968,11.441c0.495,7.095,5.761,7.699,13.193,10.911
			c5.468,2.361,9.905,5.126,14.379,2.062c1.575-1.072,3.077-2.256,4.576-3.447c0.957-0.756,1.915-1.519,2.895-2.237
			c2.094-1.532,3.909-1.427,5.719,0.348c17.253,16.875,17.177,15.425,11.805,22.008c-1.34,1.647-2.727,3.348-3.975,5.218
			c-1.447,2.154-1.851,5.397-0.988,7.87c1.592,4.596,3.45,8.798,5.023,13.206c3.745,10.503,19.875,2.009,19.943,10.822
			C313.583,411.427,312.41,405.212,299.056,407.671z" class="color40437e svgShape"></path>
      <path fill="#406d7e" d="M193.136,359.139c-29.076,28.842-8.507,78.631,32.271,78.795c0.002,0,0.002,0,0.002,0
			c0.062,0,0.121,0,0.184,0c25.327,0,45.983-20.552,46.085-45.898C271.841,351.353,222.25,330.249,193.136,359.139z
			 M225.447,428.131c-32.116-0.128-48.29-39.333-25.407-62.031c22.919-22.737,61.961-6.148,61.833,25.898
			C261.795,411.678,245.868,428.131,225.447,428.131z" class="color40437e svgShape"></path>
    </g>
  </g>
</svg>
