<svg xmlns="http://www.w3.org/2000/svg" viewBox="0 0 64 64" id="Maintenance">
  <g fill="#a71600" class="color000000 svgShape">
    <path d="M62 18h-3.48a16.93 16.93 0 0 0-2-4.85L59 10.69a1 1 0 0 0 .29-.71 1 1 0 0 0-.29-.71L54.73 5a1 1 0 0 0-1.42 0l-2.46 2.49a16.93 16.93 0 0 0-4.85-2V2a1 1 0 0 0-1-1h-6a1 1 0 0 0-1 1v3.48a16.93 16.93 0 0 0-4.85 2L30.69 5a1 1 0 0 0-.69-.26 1 1 0 0 0-.71.29L25 9.27a1 1 0 0 0-.29.71 1 1 0 0 0 .29.71l2.46 2.46a16.93 16.93 0 0 0-2 4.85H22a1 1 0 0 0-1 1v2h-8a6 6 0 0 0-6 6v3H6a3 3 0 0 0-3 3v2a3 3 0 0 0 3 3h1v1.35A6 6 0 0 0 3 45v6H2a1 1 0 0 0-1 1v4a1 1 0 0 0 1 1h3v3a3 3 0 0 0 3 3h4a3 3 0 0 0 3-3v-3h24v3a3 3 0 0 0 3 3h4a3 3 0 0 0 3-3v-3h3a1 1 0 0 0 1-1v-4a1 1 0 0 0-1-1h-1v-6a6 6 0 0 0-5-5.91v-.57a16.93 16.93 0 0 0 4.85-2L53.31 39a1 1 0 0 0 .71.29 1 1 0 0 0 .71-.29L59 34.73a1 1 0 0 0 .29-.71 1 1 0 0 0-.29-.71l-2.46-2.46a16.93 16.93 0 0 0 2-4.85H62a1 1 0 0 0 1-1v-6a1 1 0 0 0-1-1ZM6 36a1 1 0 0 1-1-1v-2a1 1 0 0 1 1-1h1v4ZM5 47h6v4H5Zm-2 6h16v2H3Zm34-6H17v-2h20Zm-20 2h20v2H17Zm16 4v2H21v-2Zm-20 7a1 1 0 0 1-1 1H8a1 1 0 0 1-1-1v-3h6Zm34 0a1 1 0 0 1-1 1h-4a1 1 0 0 1-1-1v-3h6Zm4-5H35v-2h16Zm-8-4v-4h6v4Zm6-6h-7a1 1 0 0 0-1 1v5h-2v-7a1 1 0 0 0-1-1H16a1 1 0 0 0-1 1v7h-2v-5a1 1 0 0 0-1-1H5a4 4 0 0 1 4-4h18v-2H9V27a4 4 0 0 1 4-4h8v2a1 1 0 0 0 1 1h3.48a16.93 16.93 0 0 0 2 4.85L25 33.31a1 1 0 0 0-.29.71 1 1 0 0 0 .29.71l.27.27H13v-7a1 1 0 0 1 1-1h5v-2h-5a3 3 0 0 0-3 3v8a1 1 0 0 0 1 1h15.3l2 2a1 1 0 0 0 1.42 0l2.46-2.46a16.93 16.93 0 0 0 4.85 2V39H33v2h5v1a1 1 0 0 0 1 1h6a1 1 0 0 0 1-1v-.86A4 4 0 0 1 49 45Zm12-21h-3.29a1 1 0 0 0-1 .81 15 15 0 0 1-2.32 5.62 1 1 0 0 0 .12 1.27l2.34 2.3L54 36.85l-2.3-2.32a1 1 0 0 0-1.27-.12 15 15 0 0 1-5.62 2.32 1 1 0 0 0-.81 1V41h-4v-3.29a1 1 0 0 0-.81-1 15 15 0 0 1-5.62-2.32 1 1 0 0 0-1.27.12L30 36.85 27.15 34l2.32-2.32a1 1 0 0 0 .12-1.27 15 15 0 0 1-2.32-5.62 1 1 0 0 0-1-.81H23V20h3.29a1 1 0 0 0 1-.81 15 15 0 0 1 2.32-5.62 1 1 0 0 0-.12-1.27L27.15 10 30 7.15l2.3 2.32a1 1 0 0 0 1.27.12 15 15 0 0 1 5.62-2.32 1 1 0 0 0 .81-1V3h4v3.29a1 1 0 0 0 .81 1 15 15 0 0 1 5.62 2.32 1 1 0 0 0 1.27-.12L54 7.15 56.85 10l-2.32 2.3a1 1 0 0 0-.12 1.27 15 15 0 0 1 2.32 5.62 1 1 0 0 0 1 .81H61Z" fill="#a71600" class="color000000 svgShape"></path>
    <path d="M42 9a13 13 0 1 0 13 13A13 13 0 0 0 42 9Zm-1 24v-5.22a1 1 0 0 0-.65-.94A5.24 5.24 0 0 1 37 21.89a5.37 5.37 0 0 1 2-4.2v4.2a1 1 0 0 0 .28.7l2 2.08a1 1 0 0 0 1.44 0l2-2.08a1 1 0 0 0 .28-.7v-4.2a5.37 5.37 0 0 1 2 4.2 5.24 5.24 0 0 1-3.35 4.95 1 1 0 0 0-.65.94V33h-2Zm4-.38v-4.18a7.35 7.35 0 0 0-.65-13.38A1 1 0 0 0 43 16v5.49l-1 1-1-1V16a1 1 0 0 0-1.35-.94A7.35 7.35 0 0 0 39 28.44v4.13a11 11 0 1 1 6 0Z" fill="#a71600" class="color000000 svgShape"></path>
  </g>
</svg>
