<svg xmlns="http://www.w3.org/2000/svg" viewBox="0 0 512 512" id="holdingwrench">
  <defs>
    <linearGradient id="a" x1="279.9" x2="346" y1="280.16" y2="280.16" gradientTransform="rotate(45 240.204 283.194)" gradientUnits="userSpaceOnUse">
      <stop offset="0" stop-color="#cad8dd" class="stopColorcacfdd svgShape"></stop>
      <stop offset="1" stop-color="#eef0f1" class="stopColoreef0f1 svgShape"></stop>
    </linearGradient>
  </defs>
  <g style="isolation:isolate" fill="#000000" class="color000000 svgShape">
    <g fill="#000000" class="color000000 svgShape">
      <path fill="#dee8ec" d="M381.64,345.36a19.75,19.75,0,1,1-27.94,27.93l-21.44-21.44L348.42,368a19.76,19.76,0,0,1,0,27.95h0a19.76,19.76,0,0,1-27.95,0L304.31,379.8l9.89,9.88a19.76,19.76,0,0,1-27.95,27.95L271,402.4l5,5a19.94,19.94,0,0,1-28.2,28.2L198,385.74a81.08,81.08,0,0,1-20.77-35.51l-15.58-55.61,86.2-86.21,65.9,18.87a39.51,39.51,0,0,1,17.06,10.05L394,300.56a16,16,0,0,1,0,22.69l-17.24,17.24L343.9,307.62Z" class="colordee1ec svgShape"></path>
      <path fill="#f5f5f5" d="M399.19,256.23l-104,122.19a33.23,33.23,0,1,1-46.84-46.84l122.19-104A55,55,0,0,1,439.69,154l-31.54,31.53,5.51,27.54,27.54,5.51,31.54-31.53a55,55,0,0,1-73.55,69.15Z" class="colorf5f5f5 svgShape"></path>
      <path fill="#f5f5f5" d="M246.38,380.38a33.23,33.23,0,0,1,2-48.8l86.35-73.49,34,34-73.49,86.34A33.22,33.22,0,0,1,246.38,380.38Z" class="colorf5f5f5 svgShape"></path>
      <path fill="url(#a)" d="M239.64,370.69A36.12,36.12,0,0,1,267.52,343,36.29,36.29,0,0,1,273,330.06a104.49,104.49,0,0,1-22.26-.54L296,291c2.8-1.11,5.46-2.31,7.91-3.52A44.9,44.9,0,0,1,355.56,296l5.3,5.3-65.68,77.17A33.26,33.26,0,0,1,239.64,370.69Z" style="mix-blend-mode:multiply"></path>
      <path fill="#009cd9" d="M351.39,316.29l-40.91-40.92,56.46-48.65a57.65,57.65,0,0,1,13.07-62,58.24,58.24,0,0,1,60.7-13.54l4.44,1.61-33.74,33.74,4.8,24,24,4.8L474,181.61l1.6,4.45A58.22,58.22,0,0,1,462,246.75a57.64,57.64,0,0,1-62,13.08Zm-32.1-40.59,31.77,31.78,47.29-54.88,2,.88a51.7,51.7,0,0,0,57.4-11,52.22,52.22,0,0,0,13.56-49.8l-29.15,29.16-31.08-6.22-6.21-31.07,29.15-29.16A52.26,52.26,0,0,0,384.25,169a51.68,51.68,0,0,0-11,57.4l.87,2Z" class="color5e6175 svgShape"></path>
      <path fill="#009cd9" d="M261.91,444.42a22.9,22.9,0,0,1-16.22-6.71l-49.84-49.85A84.29,84.29,0,0,1,174.31,351l-16.06-57.31L246.94,205l67.6,19.36a42.61,42.61,0,0,1,18.36,10.81l63.23,63.23a19,19,0,0,1,0,26.93L381,340.49l2.75,2.75a22.76,22.76,0,0,1-26.7,36.22A22.75,22.75,0,0,1,322.9,401.6a22.77,22.77,0,0,1-38.08,18.82A22.92,22.92,0,0,1,261.91,444.42ZM165,295.5l15.11,53.92a78.27,78.27,0,0,0,20,34.2l49.85,49.85a16.94,16.94,0,0,0,23.95-24l-5-5,4.24-4.24,15.23,15.23a16.76,16.76,0,1,0,23.71-23.7l-9.89-9.89,4.25-4.24,16.15,16.15a16.76,16.76,0,1,0,23.71-23.7L330.14,354l4.25-4.24,21.43,21.44a16.75,16.75,0,1,0,23.7-23.69l-5.74-5.74,0-.05c-.94-1.17-1.59-2.66-.05-4.2a2.6,2.6,0,0,1,2.61-.85l15.51-15.51a13,13,0,0,0,0-18.45l-63.23-63.23a36.61,36.61,0,0,0-15.77-9.28l-64.2-18.39Z" class="color5e6175 svgShape"></path>
      <rect width="6" height="46.49" x="357.33" y="300.81" fill="#009cd9" transform="rotate(-45 360.337 324.053)" class="color5e6175 svgShape"></rect>
      <rect width="172.01" height="73.21" x="103.35" y="198.55" fill="#0ea6e1" transform="rotate(-45 189.367 235.162)" class="colore1830e svgShape"></rect>
      <path fill="#009cd9" d="M246.1,438.11l-15.88-15.88a22.39,22.39,0,0,1,0-31.63l.83-.84a22.4,22.4,0,0,1,31.64,0l15.87,15.88a22.35,22.35,0,0,1,0,31.63l-.83.84A22.39,22.39,0,0,1,246.1,438.11ZM235.3,394l-.84.83a16.39,16.39,0,0,0,0,23.15l15.88,15.88a16.39,16.39,0,0,0,23.15,0l.83-.84a16.36,16.36,0,0,0,0-23.15L258.44,394A16.37,16.37,0,0,0,235.3,394Z" class="color5e6175 svgShape"></path>
      <polygon fill="#a9bcc4" points="224.29 148.46 173.03 66.4 36 203.43 102.66 270.09 224.29 148.46" class="colora9afc4 svgShape"></polygon>
      <path fill="#009cd9" d="M102.66 274.33L33.88 205.55l4.24-4.24 64.54 64.54L220.48 148l-50-80 5.09-3.18L228.1 148.9zM244.26 382.51h0a36.24 36.24 0 012.14-53.21L334.85 254l37.9 37.9-75.29 88.46A36.25 36.25 0 01244.26 382.51zm4.24-4.25a30.22 30.22 0 0044.4-1.78l71.7-84.24-30.07-30.07c-89.79 76.42-84.8 72.11-86.06 73.37a30.24 30.24 0 000 42.72z" class="color5e6175 svgShape"></path>
      <path fill="#dee8ec" d="M314.23,417.61a19.76,19.76,0,0,1-27.94,0l-25.23-25.23A19.75,19.75,0,1,1,289,364.45l25.24,25.23A19.75,19.75,0,0,1,314.23,417.61Z" class="colordee1ec svgShape"></path>
      <path fill="#dee8ec" d="M348.42,396a19.75,19.75,0,0,1-27.93,0L289,364.45a19.75,19.75,0,0,1,27.94-27.93L348.42,368A19.75,19.75,0,0,1,348.42,396Z" class="colordee1ec svgShape"></path>
      <path fill="#dee8ec" d="M381.63,373.29a19.75,19.75,0,0,1-27.93,0l-36.77-36.77a19.75,19.75,0,1,1,27.93-27.94l36.77,36.78A19.74,19.74,0,0,1,381.63,373.29Z" class="colordee1ec svgShape"></path>
      <path fill="#009cd9" d="M284.17,419.73,258.94,394.5a22.75,22.75,0,1,1,32.17-32.17l25.24,25.23a22.74,22.74,0,0,1,0,32.17h0A22.77,22.77,0,0,1,284.17,419.73ZM275,361.67a16.75,16.75,0,0,0-11.85,28.59l25.23,25.23A16.75,16.75,0,0,0,312.1,391.8l-25.23-25.23A16.66,16.66,0,0,0,275,361.67Z" class="color5e6175 svgShape"></path>
      <path fill="#009cd9" d="M318.37,398.07l-31.5-31.5a22.75,22.75,0,0,1,32.18-32.18l31.49,31.5a22.73,22.73,0,0,1,0,32.18h0A22.74,22.74,0,0,1,318.37,398.07ZM303,333.74a16.75,16.75,0,0,0-11.85,28.59l31.5,31.49a16.74,16.74,0,0,0,23.69,0h0a16.74,16.74,0,0,0,0-23.69l-31.5-31.49A16.66,16.66,0,0,0,303,333.74Z" class="color5e6175 svgShape"></path>
      <path fill="#009cd9" d="M351.58,375.41,314.8,338.64A22.75,22.75,0,1,1,347,306.46l36.78,36.78a22.74,22.74,0,0,1,0,32.17h0A22.74,22.74,0,0,1,351.58,375.41Zm-20.69-69.6a16.74,16.74,0,0,0-11.84,28.58l36.77,36.78a16.74,16.74,0,0,0,23.69,0h0a16.74,16.74,0,0,0,0-23.69L342.74,310.7A16.73,16.73,0,0,0,330.89,305.81Z" class="color5e6175 svgShape"></path>
      <path fill="#dee8ec" d="M232,307.48c31,13.24,61.14,3.69,79.18-5.21a28.42,28.42,0,0,1,32.69,5.35l5.86,5.86-5.05,5a32.35,32.35,0,0,0,0,45.76l4.13,4.13L394,323.25a16,16,0,0,0,0-22.69l-60.77-60.77" class="colordee1ec svgShape"></path>
      <path fill="#009cd9" d="M348.84 372.67l-6.26-6.26a35.42 35.42 0 010-50l2.93-2.93-3.74-3.73A25.41 25.41 0 00312.54 305c-19.9 9.82-50.23 18.7-81.69 5.28l2.35-5.52c29.37 12.52 57.91 4.12 76.69-5.14A31.44 31.44 0 01346 305.49l8 8-7.17 7.18a29.39 29.39 0 000 41.52l2 2 43.05-43.05a13 13 0 000-18.45L329.8 240.59l4.24-4.24 62.09 62.09a19 19 0 010 26.93zM369.64 124.06A13 13 0 01357 113.94c-2.51-11.16 9.8-20 19.58-13.78a13 13 0 01-6.95 23.9zm0-19.91a7 7 0 105.88 10.68A7 7 0 00369.66 104.15zM439.28 118.69a9.92 9.92 0 01-8.37-15.21h0a9.92 9.92 0 118.37 15.21zm-3.3-12a3.91 3.91 0 107.13 1.24 3.91 3.91 0 00-7.13-1.24z" class="color5e6175 svgShape"></path>
      <rect width="19.4" height="6" x="179.84" y="419.89" fill="#009cd9" transform="rotate(-45 189.546 422.888)" class="color5e6175 svgShape"></rect>
      <rect width="6" height="19.4" x="209.41" y="426.19" fill="#009cd9" class="color5e6175 svgShape"></rect>
      <rect width="19.4" height="6" x="166.31" y="398.2" fill="#009cd9" class="color5e6175 svgShape"></rect>
      <path fill="#a9bcc4" d="M260.14,161.55l-4.29-4.19,4.19-4.29,4.29,4.19ZM248.7,150.36c-2.62-2.56-3.26-3.18-4.32-4.26l4.3-4.19c1,1.08,1.63,1.64,4.22,4.16Zm-11.13-12c-1.27-1.6-2.52-3.27-3.7-5l4.92-3.44c1.11,1.58,2.28,3.15,3.48,4.66Zm-9.17-13.56-3.09-5.14,5.13-3.1,3.1,5.14Zm-8.26-13.7L217,106l5.14-3.1,3.1,5.14Zm-8.26-13.7-3.1-5.14,5.14-3.1L217,94.31ZM203.61,83.7l-3.1-5.13,5.14-3.1,3.1,5.13Z" class="colora9afc4 svgShape"></path>
      <path fill="#0ea6e1" d="M61.51 358.66A34.33 34.33 0 0195.83 393a34.33 34.33 0 0134.31-34.32 34.31 34.31 0 01-34.31-34.31A34.32 34.32 0 0161.51 358.66zM409.14 383.5a15.08 15.08 0 0115.08 15.08 15.06 15.06 0 0115.07-15.08 15.08 15.08 0 01-15.07-15.08A15.08 15.08 0 01409.14 383.5z" class="colore1830e svgShape"></path>
    </g>
  </g>
</svg>
